<?xml version="1.0" standalone="no"?>
<!DOCTYPE svg PUBLIC "-//W3C//DTD SVG 20010904//EN"
 "http://www.w3.org/TR/2001/REC-SVG-20010904/DTD/svg10.dtd">
<svg version="1.0" xmlns="http://www.w3.org/2000/svg"
 width="1253.000000pt" height="691.000000pt" viewBox="0 0 1253.000000 691.000000"
 preserveAspectRatio="xMidYMid meet">

<g transform="translate(0.000000,691.000000) scale(0.100000,-0.100000)"
fill="#000000" stroke="none">
<path d="M5319 5927 c-21 -4 -48 -20 -60 -34 -32 -34 -33 -106 -2 -148 36 -49
39 -80 9 -109 -25 -26 -27 -26 -179 -26 -200 0 -188 12 -185 -191 3 -174 6
-180 73 -135 54 37 94 42 149 18 84 -38 117 -134 75 -219 -48 -96 -141 -119
-229 -58 -64 45 -70 32 -70 -150 0 -130 2 -155 16 -166 12 -10 63 -15 180 -19
155 -5 164 -6 188 -29 30 -28 34 -71 11 -111 -19 -34 -19 -105 1 -124 34 -34
98 -32 134 4 26 26 26 85 0 128 -32 53 -25 94 21 117 21 11 66 15 177 15 132
0 151 2 165 18 14 16 17 43 17 175 0 99 -4 158 -11 162 -5 4 -29 -6 -52 -21
-55 -36 -120 -42 -164 -15 -46 29 -67 75 -68 148 0 67 15 97 69 137 41 31 114
28 160 -7 65 -50 66 -47 66 138 0 152 -1 165 -19 175 -11 5 -85 10 -169 10
-130 0 -153 2 -172 18 -30 24 -29 71 1 113 12 17 24 50 26 73 5 37 1 48 -23
75 -34 37 -83 51 -135 38z m99 -57 c28 -26 28 -69 1 -104 -34 -43 -43 -90 -24
-129 28 -59 54 -67 224 -67 l151 0 0 -124 0 -124 -32 16 c-42 22 -123 21 -165
-1 -69 -36 -112 -132 -99 -218 19 -131 150 -206 259 -150 l37 19 0 -129 0
-129 -150 0 c-164 0 -190 -6 -229 -56 -27 -34 -27 -90 -1 -129 38 -58 16 -112
-43 -103 -31 4 -34 48 -8 108 27 62 15 108 -36 147 -35 27 -40 28 -197 33
l-161 5 -3 128 c-1 70 -1 127 1 127 1 0 20 -9 42 -20 114 -58 245 16 270 152
16 85 -42 187 -127 222 -52 22 -87 20 -141 -8 l-47 -23 0 128 0 129 153 0
c179 0 207 10 228 79 11 38 10 45 -19 101 -38 73 -39 84 -7 115 31 32 91 34
123 5z"/>
<path d="M5887 5592 c-14 -16 -17 -43 -17 -163 0 -117 -3 -151 -18 -179 -25
-50 -60 -60 -117 -32 -75 36 -123 26 -145 -32 -5 -15 -7 -39 -4 -54 16 -65 68
-85 140 -53 61 27 85 26 115 -5 23 -24 24 -33 29 -192 5 -165 5 -167 30 -179
37 -19 280 -18 306 1 18 14 18 16 1 43 -69 108 -57 196 33 244 45 25 125 25
170 0 38 -20 80 -88 80 -130 0 -25 -18 -67 -50 -119 -14 -21 -13 -25 5 -38 31
-24 297 -16 322 9 15 15 18 40 21 175 4 173 10 192 64 192 16 0 46 -11 66 -25
43 -29 101 -33 137 -9 37 24 59 92 46 141 -24 88 -106 115 -186 60 -44 -30
-72 -34 -101 -13 -17 13 -19 31 -24 181 -5 150 -7 168 -24 181 -15 11 -57 14
-173 14 -174 0 -181 -3 -139 -67 33 -49 41 -92 26 -137 -18 -55 -67 -87 -142
-93 -100 -7 -163 38 -175 125 -5 34 0 51 26 97 17 31 29 60 26 65 -4 6 -72 10
-159 10 -135 0 -155 -2 -169 -18z m255 -54 c-23 -45 -22 -134 3 -176 42 -71
127 -103 230 -87 37 5 57 16 95 53 62 60 74 117 42 194 l-21 49 127 -3 127 -3
5 -162 c5 -161 5 -163 33 -190 35 -36 97 -38 143 -6 49 35 77 38 108 11 36
-32 42 -75 17 -115 -26 -41 -68 -44 -126 -8 -62 39 -137 28 -161 -23 -5 -9
-11 -87 -14 -172 l-5 -155 -128 -3 -128 -3 15 30 c52 99 15 211 -87 262 -62
32 -163 24 -214 -17 -46 -36 -83 -105 -83 -154 0 -19 9 -54 20 -77 l19 -43
-124 0 -125 0 0 138 c0 159 -9 201 -51 236 -37 32 -85 34 -136 6 -53 -28 -81
-26 -94 7 -24 64 32 95 96 53 42 -28 87 -26 126 7 51 43 59 75 59 238 l0 145
124 0 124 0 -16 -32z"/>
<path d="M4920 4620 c-18 -18 -20 -33 -20 -169 0 -135 -2 -151 -21 -175 -26
-33 -54 -33 -101 -1 -51 35 -88 41 -131 20 -59 -28 -82 -100 -53 -169 29 -68
99 -85 171 -41 51 31 99 33 119 3 13 -18 16 -53 16 -175 0 -203 -10 -193 189
-193 177 0 191 7 145 67 -57 75 -39 179 38 219 43 22 133 22 175 0 80 -41 100
-146 43 -219 -24 -30 -26 -53 -4 -61 9 -3 78 -6 155 -6 187 0 179 -9 179 193
0 122 3 157 16 175 20 30 68 28 119 -3 55 -34 106 -33 146 3 27 24 33 37 36
83 5 71 -19 113 -76 130 -38 11 -45 10 -101 -19 -73 -39 -93 -40 -119 -6 -19
24 -21 40 -21 173 0 201 9 191 -175 191 -79 0 -150 -3 -159 -6 -22 -9 -20 -36
6 -69 32 -41 36 -129 8 -173 -42 -67 -151 -91 -224 -49 -80 45 -99 139 -45
220 48 72 39 77 -142 77 -136 0 -151 -2 -169 -20z m280 -23 c0 -1 -9 -20 -20
-42 -35 -69 -24 -153 28 -209 123 -131 354 -50 354 124 0 31 -8 65 -21 90
l-21 41 128 -3 127 -3 5 -155 c5 -168 12 -190 60 -215 41 -21 63 -19 127 15
68 36 77 37 108 5 18 -18 25 -35 25 -65 0 -77 -60 -102 -135 -55 -56 34 -106
33 -147 -4 l-33 -29 -5 -164 -5 -163 -122 -3 c-68 -1 -123 0 -123 3 0 3 7 20
16 37 40 77 6 189 -71 233 -176 104 -376 -55 -295 -233 l19 -43 -127 3 -127 3
-5 163 -5 164 -34 30 c-29 26 -40 30 -77 25 -23 -2 -56 -14 -72 -26 -62 -44
-132 -10 -132 64 0 77 70 101 144 51 44 -30 74 -33 116 -11 51 27 60 58 60
218 0 79 3 147 7 150 6 7 253 10 253 4z"/>
<path d="M7193 4598 c-44 -12 -76 -59 -78 -117 -2 -80 -38 -115 -96 -92 -15 5
-74 41 -131 80 -59 40 -116 71 -130 71 -14 0 -34 -10 -45 -22 -44 -49 -155
-227 -151 -245 2 -14 15 -19 63 -23 103 -9 155 -57 155 -146 0 -100 -89 -184
-182 -171 -47 6 -112 63 -123 106 -10 40 -24 52 -46 41 -17 -10 -159 -217
-172 -251 -10 -28 20 -56 144 -139 129 -87 145 -109 114 -156 -9 -14 -32 -32
-52 -40 -89 -38 -112 -123 -50 -190 28 -31 41 -37 86 -42 49 -4 55 -2 87 29
30 29 34 39 34 85 0 63 27 104 68 104 17 0 69 -28 140 -75 134 -90 153 -98
179 -80 30 21 175 243 171 262 -2 14 -16 19 -63 23 -67 6 -120 36 -136 77 -18
48 -11 107 20 155 35 55 74 78 133 78 63 0 104 -30 135 -96 14 -30 30 -53 36
-51 14 4 173 234 180 259 8 27 -17 52 -110 113 -134 88 -163 113 -163 141 0
40 18 63 61 80 76 31 108 101 77 168 -22 49 -96 80 -155 64z m67 -38 c13 -9
13 -10 0 -10 -8 0 -33 -3 -55 -6 -38 -5 -39 -4 -21 10 22 18 54 20 76 6z m58
-71 l3 -35 -86 -15 -85 -15 0 42 0 42 48 10 c26 6 63 9 82 9 33 -2 35 -4 38
-38z m-531 2 l24 -20 -35 -6 c-49 -10 -59 -4 -41 23 20 27 21 27 52 3z m99
-68 c24 -16 44 -30 44 -33 0 -3 -60 -16 -132 -28 -73 -13 -142 -26 -152 -29
-16 -4 -13 4 15 43 31 44 41 50 90 61 79 16 88 16 135 -14z m414 2 c0 -3 -20
-14 -43 -24 -24 -11 -55 -33 -69 -51 -24 -30 -30 -32 -224 -67 l-201 -36 -44
21 c-25 12 -60 22 -79 22 -65 0 -18 14 153 45 156 29 175 30 206 17 43 -17 87
-9 121 23 17 16 48 28 100 38 41 8 76 16 78 16 1 1 2 -1 2 -4z m-118 -172 c10
-20 16 -37 15 -38 -7 -4 -379 -66 -380 -63 -1 1 -10 18 -20 37 -10 18 -16 35
-15 36 6 4 333 62 358 63 19 1 29 -7 42 -35z m90 -87 c47 -32 49 -35 27 -40
-57 -13 -482 -86 -484 -84 -2 2 0 21 4 43 l6 40 195 36 c107 20 196 37 198 38
1 0 26 -14 54 -33z m128 -82 c45 -30 45 -39 -2 -47 -18 -3 -181 -33 -362 -66
-181 -34 -332 -59 -334 -56 -3 3 1 5 8 5 7 0 32 21 55 46 l43 46 253 48 c140
26 264 48 277 49 12 0 40 -11 62 -25z m-940 -100 c0 -10 -60 -27 -69 -18 -2 1
7 17 20 35 21 30 23 31 36 13 7 -10 13 -23 13 -30z m941 -18 c-26 -38 -37 -44
-83 -54 -48 -9 -54 -8 -83 14 -18 13 -47 27 -66 31 -29 6 -17 10 86 29 66 12
133 22 148 23 l28 1 -30 -44z m-876 -41 c22 -14 49 -25 59 -25 11 0 17 -2 15
-5 -6 -6 -283 -54 -287 -50 -10 10 54 86 77 91 14 3 31 7 36 9 28 9 64 2 100
-20z m520 14 c-11 -6 -37 -29 -57 -52 l-37 -41 -263 -48 c-145 -26 -273 -48
-286 -48 -12 0 -41 12 -63 27 l-41 27 26 9 c27 9 699 135 726 136 10 0 8 -3
-5 -10z m289 -74 c-20 -30 -26 -31 -41 -6 -14 22 -6 29 35 30 22 1 22 0 6 -24z
m-400 -87 c-4 -24 -7 -43 -8 -44 -1 0 -94 -17 -208 -38 l-207 -38 -47 33 c-27
18 -43 34 -38 36 12 4 484 91 502 92 9 1 11 -10 6 -41z m11 -105 c8 -20 14
-37 13 -39 -2 -1 -79 -16 -173 -33 -93 -17 -179 -33 -191 -36 -17 -4 -24 3
-37 35 l-15 39 31 6 c18 3 100 19 182 35 83 15 156 29 162 29 7 1 20 -15 28
-36z m80 -83 c22 -11 55 -20 74 -20 73 0 11 -20 -154 -49 -163 -30 -171 -30
-212 -15 -51 20 -86 13 -121 -25 -21 -21 -43 -31 -96 -40 -37 -6 -71 -10 -73
-7 -3 2 15 14 39 26 23 12 53 34 65 48 20 24 41 30 215 63 106 20 200 37 208
38 9 1 33 -8 55 -19z m60 -97 c-36 -61 -42 -65 -117 -76 -72 -10 -74 -10 -116
18 -23 15 -40 30 -38 33 6 6 231 49 264 51 23 1 23 0 7 -26z m-498 -97 c3 -43
-8 -51 -82 -64 -68 -11 -72 -10 -86 26 -13 34 -3 42 73 57 94 19 93 19 95 -19z
m423 -15 c-16 -31 -29 -34 -58 -15 l-27 18 30 7 c58 13 67 11 55 -10z m-464
-76 c-23 -17 -42 -19 -51 -6 -4 8 12 14 60 19 6 1 1 -5 -9 -13z"/>
<path d="M2095 2776 c-61 -19 -92 -43 -115 -90 -35 -74 -22 -154 36 -208 16
-15 72 -42 128 -62 55 -20 103 -41 108 -48 9 -15 10 -50 2 -72 -10 -26 -66
-38 -110 -24 -34 11 -41 19 -54 60 l-15 48 -67 0 -68 0 0 -60 c0 -56 1 -60 23
-60 15 0 29 -9 37 -26 58 -108 285 -115 365 -10 34 44 48 116 34 169 -17 62
-61 97 -165 131 -114 36 -134 49 -134 85 0 55 66 79 129 46 30 -15 41 -33 41
-66 0 -17 8 -19 70 -19 l70 0 0 55 c0 39 -4 55 -13 55 -7 0 -34 20 -59 43 -65
63 -152 82 -243 53z"/>
<path d="M7351 2775 c-53 -17 -88 -48 -112 -100 -23 -49 -24 -84 -3 -133 22
-54 61 -89 118 -108 164 -54 184 -69 164 -126 -27 -77 -168 -45 -168 39 l0 33
-70 0 -70 0 0 -60 c0 -50 3 -60 18 -60 9 0 26 -14 37 -30 30 -46 111 -82 182
-81 32 0 72 5 88 11 110 42 162 155 116 255 -26 58 -44 70 -161 110 -58 20
-111 44 -117 53 -20 25 -15 59 9 76 55 39 148 4 148 -55 l0 -29 70 0 70 0 0
55 c0 48 -2 55 -20 55 -11 0 -20 4 -20 9 0 21 -68 73 -114 86 -60 18 -107 18
-165 0z"/>
<path d="M3809 2765 c-55 -18 -130 -81 -164 -138 -33 -58 -50 -162 -36 -227
34 -157 160 -258 311 -247 36 2 82 12 102 21 44 21 96 72 120 118 l18 33 -33
11 c-78 27 -91 27 -110 -5 -35 -60 -136 -80 -198 -38 -108 73 -112 263 -7 340
57 42 168 29 201 -23 10 -16 23 -20 74 -20 l63 0 0 65 0 65 -45 0 c-32 0 -57
8 -85 26 -49 33 -142 41 -211 19z"/>
<path d="M2480 2720 l0 -50 35 0 35 0 0 -205 0 -205 -35 0 -35 0 0 -50 0 -50
125 0 125 0 0 49 c0 47 -2 50 -27 53 -27 3 -28 5 -28 63 l0 60 85 5 c94 7 133
22 173 69 83 99 52 232 -67 287 -47 22 -63 24 -218 24 l-168 0 0 -50z m330
-78 c26 -20 36 -57 25 -99 -7 -31 -63 -55 -118 -51 l-42 3 -3 74 c-4 102 -2
105 61 98 28 -4 63 -15 77 -25z"/>
<path d="M3060 2710 l0 -60 30 0 30 0 0 -195 0 -195 -30 0 c-29 0 -30 -1 -30
-50 l0 -50 240 0 240 0 0 105 0 105 -60 0 -60 0 0 -55 0 -55 -85 0 -85 0 0 75
0 75 60 0 60 0 0 55 0 55 -60 0 -60 0 0 65 0 65 85 0 85 0 0 -40 0 -40 60 0
60 0 0 100 0 100 -240 0 -240 0 0 -60z"/>
<path d="M4220 2680 l0 -90 60 0 60 0 0 40 0 40 45 0 45 0 0 -205 0 -205 -35
0 -35 0 0 -50 0 -50 130 0 130 0 0 50 c0 49 -1 50 -30 50 l-30 0 0 205 0 205
45 0 45 0 0 -40 0 -40 65 0 65 0 0 90 0 90 -280 0 -280 0 0 -90z"/>
<path d="M4840 2720 l0 -50 35 0 35 0 0 -205 0 -205 -35 0 -35 0 0 -50 0 -50
125 0 125 0 0 50 c0 49 -1 50 -30 50 l-30 0 0 70 0 70 58 0 c83 0 99 -20 120
-144 l16 -96 88 0 88 0 0 55 c0 54 0 55 -30 55 -18 0 -30 5 -30 13 0 32 -33
120 -52 139 l-21 21 36 31 c46 40 57 64 57 121 0 68 -32 119 -94 150 -48 24
-58 25 -238 25 l-188 0 0 -50z m354 -73 c45 -30 39 -109 -9 -127 -15 -6 -55
-10 -91 -10 l-64 0 0 73 c0 41 3 77 8 81 12 13 130 0 156 -17z"/>
<path d="M5440 2720 c0 -49 1 -50 30 -50 l30 0 0 -155 c0 -186 15 -239 84
-303 117 -108 285 -72 367 78 10 17 15 79 19 200 5 172 5 175 28 178 19 3 22
9 22 53 l0 49 -120 0 -120 0 0 -50 0 -50 35 0 35 0 0 -156 c0 -121 -4 -163
-16 -189 -30 -65 -125 -73 -176 -15 l-28 30 0 165 0 165 25 0 c23 0 25 3 25
50 l0 50 -120 0 -120 0 0 -50z"/>
<path d="M6110 2720 c0 -49 1 -50 30 -50 l30 0 0 -205 0 -205 -30 0 c-29 0
-30 -1 -30 -50 l0 -50 110 0 110 0 0 50 c0 43 -3 50 -20 50 -19 0 -20 6 -19
178 l0 177 23 -50 c12 -27 56 -130 97 -228 l74 -178 54 3 53 3 91 228 c50 125
94 227 99 227 4 0 8 -81 8 -180 l0 -180 -25 0 c-23 0 -25 -3 -25 -50 l0 -50
115 0 115 0 0 50 c0 49 -1 50 -30 50 l-30 0 0 205 0 205 30 0 c29 0 30 1 30
50 l0 50 -128 0 -127 0 -79 -209 c-79 -211 -92 -239 -99 -231 -2 3 -43 103
-92 223 l-89 217 -123 0 -123 0 0 -50z"/>
<path d="M7750 2720 c0 -49 1 -50 30 -50 l30 0 0 -205 0 -205 -30 0 c-29 0
-30 -1 -30 -50 l0 -50 120 0 120 0 0 50 c0 47 -2 50 -25 50 -24 0 -25 2 -25
65 l0 65 74 0 c61 0 83 5 127 28 117 61 135 212 36 299 -51 45 -91 53 -269 53
l-158 0 0 -50z m326 -81 c24 -22 32 -68 18 -104 -10 -25 -58 -45 -109 -45
l-45 0 0 91 0 92 56 -6 c39 -4 64 -13 80 -28z"/>
<path d="M8320 2710 l0 -60 30 0 30 0 0 -195 0 -195 -30 0 c-29 0 -30 -1 -30
-50 l0 -50 240 0 240 0 0 105 0 105 -60 0 -60 0 0 -55 0 -55 -85 0 -85 0 0 75
0 75 60 0 60 0 0 55 0 55 -60 0 -60 0 0 65 0 65 85 0 85 0 0 -40 0 -40 60 0
60 0 0 100 0 100 -240 0 -240 0 0 -60z"/>
<path d="M8978 2515 c-76 -233 -85 -255 -105 -255 -21 0 -23 -5 -23 -50 l0
-50 110 0 110 0 0 50 c0 49 -1 50 -30 50 -28 0 -30 2 -24 28 18 75 14 72 122
72 l99 0 11 -39 c17 -55 15 -61 -18 -61 -29 0 -30 -1 -30 -50 l0 -50 115 0
115 0 0 50 c0 45 -2 50 -22 50 -21 0 -30 22 -105 253 l-81 252 -81 3 -80 3
-83 -256z m196 44 c14 -48 26 -90 26 -93 0 -3 -30 -6 -66 -6 -49 0 -65 3 -61
13 2 6 17 52 31 101 15 49 31 85 36 80 4 -5 20 -48 34 -95z"/>
<path d="M9490 2720 l0 -50 35 0 35 0 0 -205 0 -205 -35 0 -35 0 0 -50 0 -50
130 0 130 0 0 50 c0 49 -1 50 -30 50 l-30 0 0 205 0 205 30 0 c29 0 30 1 30
50 l0 50 -130 0 -130 0 0 -50z"/>
<path d="M9890 2711 l0 -59 -87 -78 c-49 -43 -92 -82 -98 -86 -5 -5 30 -48 88
-106 l97 -97 0 -63 0 -62 100 0 100 0 0 55 c0 50 -2 55 -23 55 -15 0 -55 33
-125 103 l-103 103 108 92 c66 56 117 92 131 92 20 0 22 5 22 55 l0 55 -105 0
-105 0 0 -59z"/>
<path d="M2760 1820 l0 -80 53 2 52 2 -47 3 c-47 4 -48 5 -48 38 0 33 2 34 43
38 l42 4 -42 1 c-40 2 -43 4 -43 31 0 28 2 30 48 34 l47 3 -52 2 -53 2 0 -80z"/>
<path d="M3014 1883 c16 -51 53 -134 61 -136 9 -2 69 143 62 150 -2 1 -16 -28
-31 -67 -15 -38 -29 -70 -31 -70 -1 0 -13 28 -25 63 -22 60 -50 107 -36 60z"/>
<path d="M3300 1820 l0 -80 53 2 52 2 -47 3 c-47 4 -48 5 -48 38 0 33 2 34 43
38 l42 4 -42 1 c-40 2 -43 4 -43 31 0 28 2 30 48 34 l47 3 -52 2 -53 2 0 -80z"/>
<path d="M3572 1818 c1 -46 3 -66 5 -45 5 47 35 51 58 8 8 -17 20 -33 27 -37
6 -4 1 9 -11 30 l-23 37 21 15 c44 31 16 74 -48 74 l-31 0 2 -82z m82 49 c9
-15 7 -21 -8 -33 -11 -8 -30 -14 -43 -14 -20 0 -23 5 -23 36 0 34 1 35 31 32
18 -2 37 -11 43 -21z"/>
<path d="M3830 1896 c0 -4 11 -24 25 -44 15 -22 25 -52 26 -77 l2 -40 6 41 c4
22 16 53 27 70 29 41 36 54 30 54 -3 0 -18 -18 -33 -41 l-27 -40 -21 35 c-24
40 -35 53 -35 42z"/>
<path d="M4321 1874 c-27 -34 -27 -74 0 -108 18 -23 28 -27 62 -24 25 2 42 9
45 18 4 12 2 13 -9 3 -22 -21 -76 -16 -93 9 -39 55 -2 125 60 115 20 -4 32 -2
29 4 -4 5 -21 9 -40 9 -24 0 -39 -7 -54 -26z"/>
<path d="M4615 1874 c-29 -31 -31 -53 -10 -93 16 -31 33 -41 71 -41 38 0 61
16 73 50 29 86 -73 150 -134 84z m109 -6 c37 -52 9 -118 -49 -118 -39 0 -68
30 -68 70 0 64 83 97 117 48z"/>
<path d="M4932 1823 l-2 -83 43 2 42 1 -37 4 -37 4 -4 77 -3 77 -2 -82z"/>
<path d="M5199 1887 c-31 -24 -41 -55 -29 -93 27 -82 142 -70 156 16 5 28 1
40 -20 63 -27 29 -78 36 -107 14z m96 -17 c41 -45 10 -120 -48 -120 -17 0 -39
7 -49 17 -22 20 -24 71 -2 101 20 29 74 30 99 2z"/>
<path d="M5502 1818 c1 -46 3 -66 5 -45 5 49 33 50 59 2 10 -19 22 -35 26 -35
4 0 -2 16 -14 36 l-21 35 22 15 c41 29 14 74 -45 74 l-34 0 2 -82z m77 54 c13
-25 1 -40 -37 -48 -31 -6 -32 -6 -32 30 0 33 2 36 30 36 18 0 33 -7 39 -18z"/>
<path d="M6160 1820 l0 -80 53 2 52 2 -47 3 c-47 4 -48 5 -48 38 0 33 2 34 43
38 l42 4 -42 1 c-40 2 -43 4 -43 31 0 28 2 30 48 34 l47 3 -52 2 -53 2 0 -80z"/>
<path d="M6411 1895 c0 -20 54 -147 63 -147 10 1 70 142 62 149 -2 2 -16 -29
-32 -69 l-28 -73 -18 45 c-30 71 -47 106 -47 95z"/>
<path d="M6700 1820 l0 -80 53 2 52 2 -47 3 c-47 4 -48 5 -48 38 0 33 2 34 43
38 l42 4 -42 1 c-40 2 -43 4 -43 31 0 28 2 30 48 34 l47 3 -52 2 -53 2 0 -80z"/>
<path d="M6972 1818 c1 -46 3 -66 5 -45 5 49 33 50 59 2 10 -19 22 -35 27 -35
5 0 -1 16 -13 36 l-22 35 21 15 c44 31 16 74 -48 74 l-31 0 2 -82z m77 58 c15
-18 5 -43 -22 -50 -41 -11 -47 -7 -47 29 0 32 3 35 29 35 16 0 34 -6 40 -14z"/>
<path d="M7250 1856 c19 -29 30 -58 31 -83 l2 -38 6 40 c4 22 19 59 34 83 15
23 25 42 22 42 -2 0 -17 -18 -32 -41 l-26 -40 -26 40 c-14 23 -30 41 -34 41
-4 0 6 -20 23 -44z"/>
<path d="M7725 1825 c-19 -43 -33 -81 -30 -84 3 -3 8 5 12 17 5 19 12 22 53
22 40 0 50 -4 55 -21 4 -11 9 -18 12 -15 6 6 -44 134 -58 150 -5 5 -24 -26
-44 -69z m69 -12 c7 -21 4 -23 -28 -23 -41 0 -42 5 -20 58 l15 37 13 -25 c8
-14 17 -35 20 -47z"/>
<path d="M8000 1820 l0 -80 38 0 c42 0 62 14 62 43 0 26 -28 46 -62 47 -24 0
-28 4 -28 31 0 28 2 30 33 27 24 -2 33 -8 35 -26 2 -12 8 -20 13 -17 27 17
-12 55 -57 55 l-34 0 0 -80z m71 -10 c10 -6 19 -19 19 -29 0 -21 -19 -31 -56
-31 -21 0 -24 5 -24 35 0 29 4 35 21 35 11 0 29 -5 40 -10z"/>
<path d="M8283 1820 c0 -47 2 -66 4 -42 2 23 2 61 0 85 -2 23 -4 4 -4 -43z"/>
<path d="M8472 1823 l-2 -83 43 2 42 1 -37 4 -37 4 -4 77 -3 77 -2 -82z"/>
<path d="M8713 1820 c0 -47 2 -66 4 -42 2 23 2 61 0 85 -2 23 -4 4 -4 -43z"/>
<path d="M8907 1893 l32 -4 4 -77 3 -77 2 77 2 77 33 4 c17 2 1 4 -38 4 -38 0
-56 -2 -38 -4z"/>
<path d="M9156 1888 c4 -7 16 -26 28 -42 11 -17 23 -48 27 -70 l6 -41 2 40 c1
25 11 55 27 78 14 21 24 41 21 43 -2 3 -15 -14 -29 -36 l-24 -42 -27 41 c-25
37 -49 59 -31 29z"/>
<path d="M5777 1753 c-4 -3 -7 -16 -6 -27 0 -19 1 -19 10 3 10 24 8 36 -4 24z"/>
</g>
</svg>
